<svg width="24" height="24" viewBox="0 0 24 24" fill="none" xmlns="http://www.w3.org/2000/svg">
<g clip-path="url(#clip0_14067_312973)">
<path d="M12 2C6.48 2 2 6.48 2 12C2 17.52 6.48 22 12 22C17.52 22 22 17.52 22 12C22 6.48 17.52 2 12 2ZM12 20C7.58 20 4 16.42 4 12C4 7.58 7.58 4 12 4C16.42 4 20 7.58 20 12C20 16.42 16.42 20 12 20Z" fill="#D5031E"/>
<path d="M17 8.00714L15.9929 7L12 10.9929L8.00714 7L7 8.00714L10.9929 12L7 15.9929L8.00714 17L12 13.0071L15.9929 17L17 15.9929L13.0071 12L17 8.00714Z" fill="#D5031E" stroke="#D5031E" stroke-width="0.5"/>
</g>
<defs>
<clipPath id="clip0_14067_312973">
<rect width="24" height="24" fill="white"/>
</clipPath>
</defs>
</svg>
