<svg width="256" height="256" viewBox="0 0 256 256" fill="none" xmlns="http://www.w3.org/2000/svg">
<rect width="256" height="256" fill="white"/>
<circle opacity="0.1" cx="128" cy="128" r="108" fill="#AB47BC"/>
<circle opacity="0.1" cx="128" cy="128" r="84" fill="#AB47BC" fill-opacity="0.6"/>
<circle opacity="0.1" cx="128" cy="128" r="69" fill="#AB47BC"/>
<circle cx="128" cy="128" r="57" fill="white"/>
<path fill-rule="evenodd" clip-rule="evenodd" d="M127.963 72.21C119.854 71.9616 111.808 73.6943 104.529 77.2564L104.512 77.2647C95.0433 81.7618 87.0122 88.778 81.3096 97.5353C75.6105 106.287 72.4595 116.437 72.2055 126.859V130.369C72.7472 145.015 79.0966 158.854 89.8677 168.863C100.646 178.878 114.974 184.244 129.721 183.786C144.467 183.329 158.432 177.087 168.561 166.423C178.69 155.759 184.161 141.543 183.775 126.882L183.774 126.84C183.774 110.021 175.828 96.6188 164.838 87.2679C153.82 77.8938 139.825 72.6667 127.963 72.21ZM103.122 74.3933C110.871 70.6029 119.436 68.7597 128.068 69.0251L128.081 69.0255C140.702 69.5097 155.383 75.0288 166.922 84.847C178.486 94.6861 186.974 108.918 186.98 126.819C187.382 142.315 181.598 157.34 170.892 168.611C160.18 179.887 145.414 186.488 129.821 186.971C114.227 187.455 99.0758 181.781 87.6787 171.19C76.2816 160.6 69.5662 145.955 69.0011 130.456L69 130.427V126.802C69.2647 115.784 72.5944 105.055 78.6187 95.8037C84.6412 86.5549 93.1224 79.1443 103.122 74.3933Z" fill="#AB47BC"/>
<path fill-rule="evenodd" clip-rule="evenodd" d="M151.221 99.106C146.549 88.4012 139.568 78.8471 130.773 71.1194L131.511 70.29C140.428 78.1254 147.506 87.8127 152.243 98.6668C158.484 113.117 160.172 129.11 157.082 144.533C153.993 159.955 146.272 174.084 134.938 185.055L134.162 184.262C145.334 173.447 152.945 159.519 155.99 144.316C159.036 129.114 157.373 113.35 151.221 99.106Z" fill="#AB47BC"/>
<path fill-rule="evenodd" clip-rule="evenodd" d="M92.3414 104.799C95.1764 92.3964 101.687 81.1231 111.032 72.4354L111.792 73.2438C102.612 81.7781 96.2163 92.8516 93.4295 105.035C91.9813 112.624 91.8567 120.405 93.0617 128.037L93.0641 128.051C94.1977 136.755 96.6637 145.235 100.377 153.197C104.129 161.313 107.608 168.804 115.571 175.318C120.649 179.353 126.492 182.329 132.752 184.068L132.453 185.134C126.047 183.355 120.068 180.309 114.873 176.18L114.867 176.175C106.682 169.481 103.115 161.771 99.3662 153.662C95.6067 145.6 93.1092 137.014 91.9605 128.201C90.7364 120.443 90.8641 112.534 92.3374 104.819L92.3414 104.799Z" fill="#AB47BC"/>
<path fill-rule="evenodd" clip-rule="evenodd" d="M112.763 133.471C105.657 115.005 102.605 95.2426 103.812 75.5084L104.923 75.5756C103.726 95.1522 106.754 114.757 113.803 133.075C120.852 151.393 131.759 168.001 145.794 181.785L145.012 182.573C130.864 168.678 119.869 151.936 112.763 133.471Z" fill="#AB47BC"/>
<path fill-rule="evenodd" clip-rule="evenodd" d="M148.273 91.5363C132.106 82.4752 113.337 79.0987 95.0007 81.9529L94.8285 80.8593C113.414 77.9664 132.438 81.3892 148.824 90.5743L148.832 90.5787C166.631 100.937 179.781 117.659 185.596 137.33L184.528 137.642C178.793 118.243 165.825 101.752 148.273 91.5363Z" fill="#AB47BC"/>
<path fill-rule="evenodd" clip-rule="evenodd" d="M82.4019 112.409C80.8273 125.76 81.7066 141.982 90.5168 155.98C95.4307 163.604 101.887 170.128 109.475 175.138C117.763 180.184 127.189 183.091 136.895 183.592L136.837 184.697C126.942 184.186 117.333 181.223 108.884 176.077L108.867 176.066C101.146 170.97 94.5768 164.332 89.5774 156.574L89.5743 156.569C80.574 142.271 79.7065 125.757 81.296 112.28C82.8863 98.7956 86.9436 88.2828 87.8665 85.9319L88.9038 86.3344C87.9939 88.652 83.9759 99.0626 82.4019 112.409Z" fill="#AB47BC"/>
<path fill-rule="evenodd" clip-rule="evenodd" d="M97.0987 133.834C88.525 123.906 81.7747 112.558 77.1562 100.306L78.1989 99.9171C82.7718 112.048 89.4555 123.285 97.9447 133.114L97.9472 133.117C109.8 147.026 124.828 157.915 141.777 164.874C149.238 167.898 156.992 170.148 164.918 171.588L164.718 172.677C156.716 171.223 148.887 168.951 141.355 165.898C124.243 158.872 109.066 147.877 97.0987 133.834Z" fill="#AB47BC"/>
<path fill-rule="evenodd" clip-rule="evenodd" d="M132.239 106.227C113.358 101.665 93.652 101.665 74.7708 106.227L74.5079 105.151C93.561 100.548 113.447 100.548 132.5 105.151C152.422 109.778 170.77 119.534 185.7 133.439L184.939 134.247C170.15 120.474 151.977 110.811 132.244 106.228L132.239 106.227Z" fill="#AB47BC"/>
<path fill-rule="evenodd" clip-rule="evenodd" d="M166.576 87.1772C162.538 85.7976 129.353 74.4582 101.349 92.8595L101.342 92.8637C97.9268 95.0424 80.2277 106.724 75.2394 128.645C73.7119 135.253 73.5094 142.098 74.6441 148.784L73.5461 148.969C72.3872 142.139 72.5935 135.15 74.1536 128.4C79.244 106.033 97.2729 94.1445 100.738 91.934C129.209 73.2285 162.855 84.7343 166.927 86.1265C166.986 86.1468 167.039 86.1649 167.086 86.1808L166.725 87.2281C166.681 87.2131 166.631 87.1961 166.576 87.1772Z" fill="#AB47BC"/>
<path fill-rule="evenodd" clip-rule="evenodd" d="M141.26 79.6981C131.887 77.4642 122.149 77.1892 112.663 78.8904C103.176 80.5918 94.1483 84.2331 86.1505 89.5835L85.5288 88.6652C93.6545 83.2292 102.827 79.5297 112.466 77.801C122.105 76.0724 131.999 76.3522 141.524 78.6227L141.533 78.6249C150.494 80.9166 158.882 85.0275 166.167 90.6989C173.452 96.3702 179.478 103.479 183.865 111.579L182.884 112.103C178.571 104.139 172.645 97.1476 165.48 91.5704C158.317 85.9941 150.071 81.952 141.26 79.6981Z" fill="#AB47BC"/>
<path fill-rule="evenodd" clip-rule="evenodd" d="M156.878 146.896C168.198 129.745 172.396 108.904 168.594 88.7427L169.689 88.5387C173.544 108.981 169.287 130.113 157.809 147.503C146.331 164.893 128.526 177.189 108.127 181.812L107.879 180.733C127.998 176.173 145.558 164.046 156.878 146.896Z" fill="#AB47BC"/>
<path fill-rule="evenodd" clip-rule="evenodd" d="M171.97 91.0039C173.096 93.558 185.838 123.435 167.664 151.985C148.257 182.56 111.819 182.56 109.923 182.56L109.921 181.453C111.777 181.453 147.651 181.441 166.723 151.395C184.573 123.353 172.058 93.9611 170.95 91.4481L171.97 91.0039Z" fill="#AB47BC"/>
<path fill-rule="evenodd" clip-rule="evenodd" d="M138.156 123.151C128.539 105.696 115.501 90.3337 99.8114 77.9715L100.503 77.104C116.309 89.5582 129.444 105.035 139.133 122.62C148.526 139.687 154.445 158.426 156.552 177.767L155.445 177.886C153.353 158.69 147.479 140.091 138.156 123.151Z" fill="#AB47BC"/>
<path fill-rule="evenodd" clip-rule="evenodd" d="M185.196 138.941C184.051 142.124 173.763 170.741 141.269 178.705C124.07 182.915 109.237 178.96 98.5862 173.83C87.9412 168.702 81.4469 162.387 80.8868 161.815L81.6846 161.043C82.1841 161.553 88.5761 167.777 99.0718 172.834C109.562 177.887 124.124 181.761 141.002 177.63C172.905 169.811 183.017 141.709 184.152 138.555C184.184 138.466 184.209 138.397 184.227 138.349L185.271 138.734C185.253 138.782 185.228 138.852 185.196 138.941Z" fill="#AB47BC"/>
<path fill-rule="evenodd" clip-rule="evenodd" d="M92.1232 162.289C84.1073 156.827 77.2654 149.834 71.9967 141.716L72.9324 141.116C78.1209 149.11 84.8587 155.997 92.7528 161.376C100.645 166.754 109.536 170.515 118.905 172.443C128.665 174.221 138.688 174.003 148.36 171.803C158.035 169.603 167.157 165.465 175.17 159.643L175.827 160.537C167.692 166.448 158.431 170.648 148.609 172.882C138.786 175.116 128.609 175.337 118.698 173.53L118.686 173.528C109.169 171.571 100.139 167.751 92.1232 162.289Z" fill="#AB47BC"/>
<path fill-rule="evenodd" clip-rule="evenodd" d="M177.279 99.5518C159.5 90.5771 139.122 88.073 119.68 92.4746C100.238 96.8763 82.9597 107.905 70.8439 123.648L69.9596 122.976C82.2334 107.027 99.7372 95.8544 119.433 91.3954C139.128 86.9363 159.772 89.473 177.783 98.5649L177.279 99.5518Z" fill="#AB47BC"/>
</svg>
